<svg xmlns="http://www.w3.org/2000/svg" viewBox="-15 -15 300.67 289.07" preserveAspectRatio="xMidYMid meet" role="img" aria-label="Telavox">
  <g transform="translate(0,259) scale(0.1,-0.1)" stroke="none">
    <path fill="#2BC558" d="M429 2571 c-200 -63 -355 -221 -413 -423 -21 -72 -21 -243 -1 -321 53 -205 222 -374 435 -434 61 -17 120 -18 895 -18 924 0 893 -2 1030 68 216 111 349 340 330 574 -21 272 -183 476 -440 555 -56 17 -113 18 -920 17 -790 -1 -865 -2 -916 -18z"/>
    <path fill="#FFFFFF" d="M1216 1194 c-241 -52 -438 -268 -464 -511 -18 -160 18 -310 103 -428 82 -116 176 -185 312 -231 102 -34 254 -34 368 1 282 86 459 367 417 661 -7 47 -22 107 -32 135 -111 280 -406 436 -704 373z"/>
  </g>
</svg>
