<svg width="64" height="64" viewBox="0 0 64 64" xmlns="http://www.w3.org/2000/svg">
  <!-- Steaan brand mark (v0.0.108): teal rounded square + ticket glyph,
       the same mark the sidebar / login card render under the Steaan theme. -->
  <rect width="64" height="64" rx="16" fill="#0F766E"/>
  <g transform="translate(14 14) scale(1.5)" fill="none" stroke="#FFFFFF" stroke-width="2" stroke-linecap="round" stroke-linejoin="round">
    <path d="M2 9a3 3 0 0 1 0 6v2a2 2 0 0 0 2 2h16a2 2 0 0 0 2-2v-2a3 3 0 0 1 0-6V7a2 2 0 0 0-2-2H4a2 2 0 0 0-2 2Z"/>
    <path d="M13 5v2"/><path d="M13 17v2"/><path d="M13 11v2"/>
  </g>
</svg>
